<svg width="256" height="256" viewBox="0 0 256 256" xmlns="http://www.w3.org/2000/svg">
  <defs>
    <linearGradient id="bg" x1="0%" y1="0%" x2="100%" y2="100%">
      <stop offset="0%" stop-color="#FFB703"/>
      <stop offset="100%" stop-color="#FB5607"/>
    </linearGradient>
  </defs>

  <!-- Background -->
  <rect x="20" y="20" width="216" height="216" rx="48" fill="url(#bg)"/>

  <!-- Bookmark body -->
  <path d="M88 56
           H168
           C176 56 184 64 184 72
           V184
           C184 192 176 196 168 192
           L144 180
           L128 188
           L112 180
           L88 192
           C80 196 72 192 72 184
           V72
           C72 64 80 56 88 56Z"
        fill="#FFFFFF"/>

  <!-- Eyes -->
  <circle cx="112" cy="104" r="6" fill="#FB5607"/>
  <circle cx="144" cy="104" r="6" fill="#FB5607"/>

  <!-- Smile -->
  <path d="M112 124
           Q128 140 144 124"
        stroke="#FB5607"
        stroke-width="6"
        fill="none"
        stroke-linecap="round"/>
</svg>
